# AST/ASF file generated using VICON BodyLanguage
# -----------------------------------------------
:version 1.10
:name VICON
:units
  mass 1.0
  length 0.45
  angle deg
:documentation
   .ast/.asf automatically generated from VICON data using
   VICON BodyBuilder and BodyLanguage model FoxedUp or BRILLIANT.MOD
:root
   order TX TY TZ RX RY RZ
   axis XYZ
   position 0 0 0  
   orientation 0 0 0 
:bonedata
  begin
     id 1 
     name lhipjoint
     direction 0.624716 -0.669793 0.401383 
     length 2.38238 
     axis 0 0 0  XYZ
  end
  begin
     id 2 
     name lfemur
     direction 0.34202 -0.939693 0  
     length 6.4574  
     axis 0 0 20  XYZ
    dof rx ry rz
    limits (-160.0 20.0)
           (-70.0 70.0)
           (-60.0 70.0)
  end
  begin
     id 3 
     name ltibia
     direction 0.34202 -0.939693 0   
     length 7.68739   
     axis 0 0 20   XYZ
    dof rx
    limits (-10.0 170.0)
  end
  begin
     id 4 
     name lfoot
     direction 0.0681309 -0.187188 0.979959   
     length 2.46615   
     axis -90 7.62852e-016 20   XYZ
    dof rx rz
    limits (-45.0 90.0)
           (-70.0 20.0)
  end
  begin
     id 5 
     name ltoes
     direction 1.53566e-011 -4.21819e-011 1   
     length 1.2376   
     axis -90 7.62852e-016 20   XYZ
    dof rx
    limits (-90.0 20.0)
  end
  begin
     id 6 
     name rhipjoint
     direction -0.644473 -0.655875 0.393043   
     length 2.43293  
     axis 0 0 0  XYZ 
  end
  begin
     id 7 
     name rfemur
     direction -0.34202 -0.939693 0   
     length 6.7025   
     axis 0 0 -20   XYZ
    dof rx ry rz
    limits (-160.0 20.0)
           (-70.0 70.0)
           (-70.0 60.0)
  end
  begin
     id 8 
     name rtibia
     direction -0.34202 -0.939693 0   
     length 7.80547   
     axis 0 0 -20   XYZ
    dof rx
    limits (-10.0 170.0)
 end
 begin
     id 9 
     name rfoot
     direction -0.0756734 -0.207911 0.975216   
     length 2.40315  
     axis -90 -7.62852e-016 -20   XYZ
    dof rx rz
    limits (-45.0 90.0)
           (-20.0 70.0)
  end
  begin
     id 10 
     name rtoes
     direction -1.5353e-011 -4.21879e-011 1   
     length 1.20477   
     axis -90 -7.62852e-016 -20   XYZ
    dof rx
    limits (-90.0 20.0)
  end
  begin
     id 11 
     name lowerback
     direction 0.0160353 0.987463 -0.157037   
     length 2.18572   
     axis 0 0 0   XYZ
    dof rx ry rz
    limits (-20.0 45.0)
           (-30.0 30.0)
           (-30.0 30.0)
  end
  begin
     id 12 
     name upperback
     direction -0.00499661 0.999756 0.0215076   
     length 2.18016   
     axis 0 0 0   XYZ
    dof rx ry rz
    limits (-20.0 45.0)
           (-30.0 30.0)
           (-30.0 30.0)
  end
  begin
     id 13 
     name thorax
     direction -0.00921346 0.995333 0.0960619   
     length 2.24923   
     axis 0 0 0   XYZ
    dof rx ry rz
    limits (-20.0 45.0)
           (-30.0 30.0)
           (-30.0 30.0)
  end
  begin
     id 14 
     name lowerneck
     direction 0.0274184 0.991181 0.12965   
     length 1.70911   
     axis 0 0 0   XYZ
    dof rx ry rz
    limits (-20.0 45.0)
           (-30.0 30.0)
           (-30.0 30.0)
  end
  begin
     id 15 
     name upperneck
     direction 0.0015627 0.999959 -0.00893559   
     length 1.69312   
     axis 0 0 0   XYZ
    dof rx ry rz
    limits (-20.0 45.0)
           (-30.0 30.0)
           (-30.0 30.0)
  end
  begin
     id 16
     name head
     direction -0.00230242 0.999856 -0.0168327  
     length 1.80241  
     axis 0 0 0   XYZ
    dof rx ry rz
    limits (-20.0 45.0)
           (-30.0 30.0)
           (-30.0 30.0)
  end
  begin
     id 17 
     name lclavicle
     direction 0.955523 0.290741 -0.0494489  
     length 3.84275  
     axis 0 0 0   XYZ
    dof ry rz
    limits (-20.0 10.0)
           (0.0 20.0)
  end
  begin
     id 18 
     name lhumerus
     direction 1 -4.48967e-011 -3.18382e-028   
     length 5.17714   
     axis 180 -30 -90   XYZ
    dof rx ry rz
    limits (-60.0 90.0)
           (-90.0 90.0)
           (-90.0 90.0)
  end
  begin
     id 19
     name lradius
     direction 1 -4.48968e-011 -2.22911e-027   
     length 3.43679   
     axis 180 -30 -90   XYZ
    dof rx
    limits (-10.0 170.0)
  end
  begin
     id 20
     name lwrist
     direction 1 -4.48951e-011 -6.32245e-027   
     length 1.7184   
     axis 3.57107e-015 90 90   XYZ
    dof ry
    limits (-180.0 0.0)
 end
  begin
     id 21 
     name lhand
     direction 1 -4.48924e-011 -1.26431e-026   
     length 0.573117   
     axis 8.06912e-015 90 90   XYZ
    dof rx rz
    limits (-90.0 90.0)
           (-45.0 45.0)
  end
  begin
     id 22 
     name lfingers
     direction 1 -4.49001e-011 -2.52965e-026   
     length 0.462062   
     axis 1.61381e-014 90 90   XYZ
    dof rx
    limits (0.0 90.0)
  end
  begin
     id 23
     name lthumb
     direction 0.707107 -6.35008e-011 0.707107   
     length 0.663431   
     axis -90 45 -1.62303e-014   XYZ
    dof rx rz
    limits (-45.0 45.0)
           (-45.0 45.0)
  end
  begin
     id 24 
     name rclavicle
     direction -0.963917 0.256881 -0.0698287   
     length 3.73057  
     axis 0 0 0   XYZ 
    dof ry rz
    limits (-10.0 20.0)
           (-20.0 0.0)
  end
  begin
     id 25 
     name rhumerus
     direction -1 -4.48962e-011 -2.73982e-027  
     length 5.23908   
     axis 180 30 90   XYZ
    dof rx ry rz
    limits (-90.0 60.0)
           (-90.0 90.0)
           (-90.0 90.0)
  end
  begin
     id 26 
     name rradius
     direction -1 -4.48968e-011 -4.33218e-027   
     length 3.46485   
     axis 180 30 90   XYZ
    dof rx
    limits (-10.0 170.0)
  end
  begin
     id 27 
     name rwrist
     direction -1 -4.48989e-011 -6.32372e-027   
     length 1.73243   
     axis 3.57107e-015 -90 -90   XYZ
    dof ry
    limits (-180.0 0.0)
  end
  begin
     id 28
     name rhand
     direction -1 -4.48948e-011 -1.26448e-026   
     length 0.608752   
     axis 8.06912e-015 -90 -90   XYZ
    dof rx rz
    limits (-90.0 90.0)
           (-45.0 45.0)
  end
  begin
     id 29
     name rfingers
     direction -1 -4.48962e-011 -2.52913e-026   
     length 0.490792   
     axis 1.61381e-014 -90 -90   XYZ
    dof rx
    limits (0.0 90.0)
  end
  begin
     id 30
     name rthumb
     direction -0.707107 -6.34878e-011 0.707107   
     length 0.704682   
     axis -90 -45 1.62303e-014   XYZ
    dof rx rz
    limits (-45.0 45.0)
           (-45.0 45.0)
  end
:hierarchy
  begin
    root lhipjoint rhipjoint lowerback
    lhipjoint lfemur
    lfemur ltibia
    ltibia lfoot
    lfoot ltoes
    rhipjoint rfemur
    rfemur rtibia
    rtibia rfoot
    rfoot rtoes
    lowerback upperback
    upperback thorax
    thorax lowerneck lclavicle rclavicle
    lowerneck upperneck
    upperneck head
    lclavicle lhumerus
    lhumerus lradius
    lradius lwrist
    lwrist lhand lthumb
    lhand lfingers
    rclavicle rhumerus
    rhumerus rradius
    rradius rwrist
    rwrist rhand rthumb
    rhand rfingers
  end

#!OML:ASF G:\JayActor3\Patient Classification 1\Patient 1\Session 6\male.ASF
:FULLY-SPECIFIED
:DEGREES
146
root 44.7609 15.8584 -18.5228 170.98 -74.3914 -170.056
lowerback -3.14609 -0.0740759 2.98683
upperback 2.87796 -0.306248 0.496571
thorax 4.7287 -0.0713247 -1.1838
lowerneck -8.85578 2.13856 4.44984
upperneck 9.75607 2.50423 -2.24828
head 4.45675 1.25329 -1.25451
rclavicle 1.75987e-014 -2.13694e-015
rhumerus -33.3101 -11.4192 -83.224
rradius 29.6408
rwrist 2.74361
rhand -17.0579 -6.63828
rfingers 7.12502
rthumb 9.17945 -36.4185
lclavicle 1.75987e-014 -2.13694e-015
lhumerus -29.9085 9.99821 84.1791
lradius 24.7289
lwrist 15.739
lhand -16.6862 10.8286
lfingers 7.12502
lthumb 9.53813 40.5927
rfemur -10.8828 1.44356 25.1012
rtibia 35.3919
rfoot -27.4924 -14.5719
rtoes 3.05201
lfemur -4.63201 6.95305 -17.0751
ltibia 24.3319
lfoot -21.5207 14.8681
ltoes -2.51738
147
root 44.7607 15.8581 -18.5214 170.989 -74.3968 -170.078
lowerback -3.16399 -0.0675329 2.99541
upperback 2.88092 -0.298609 0.49473
thorax 4.7423 -0.0669811 -1.19003
lowerneck -8.91393 2.22939 4.53793
upperneck 9.92034 2.62353 -2.34893
head 4.52349 1.30915 -1.29102
rclavicle -1.0871e-014 -1.3418e-015
rhumerus -33.3192 -11.4413 -83.2099
rradius 29.6241
rwrist 2.75016
rhand -17.0638 -6.62422
rfingers 7.12502
rthumb 9.17374 -36.4047
lclavicle -1.0871e-014 -1.3418e-015
lhumerus -29.882 9.9502 84.1979
lradius 24.761
lwrist 15.7542
lhand -16.6767 10.8302
lfingers 7.12502
lthumb 9.54731 40.5939
rfemur -10.8654 1.43321 25.0864
rtibia 35.3858
rfoot -27.4982 -14.556
rtoes 3.08323
lfemur -4.61854 6.97388 -17.0838
ltibia 24.3282
lfoot -21.515 14.849
ltoes -2.53027
148
root 44.7604 15.8579 -18.5199 171.005 -74.402 -170.106
lowerback -3.18243 -0.0608645 3.00309
upperback 2.88438 -0.290791 0.492817
thorax 4.75674 -0.062562 -1.19582
lowerneck -8.97032 2.32019 4.61937
upperneck 10.0774 2.74329 -2.44393
head 4.58786 1.3652 -1.3246
rclavicle 3.41785e-014 -4.67144e-015
rhumerus -33.3245 -11.4683 -83.1927
rradius 29.6009
rwrist 2.76121
rhand -17.0702 -6.60026
rfingers 7.12502
rthumb 9.16763 -36.381
lclavicle 3.41785e-014 -4.67144e-015
lhumerus -29.8524 9.90387 84.2186
lradius 24.7916
lwrist 15.7738
lhand -16.6692 10.8392
lfingers 7.12502
lthumb 9.55448 40.6025
rfemur -10.8496 1.41915 25.0687
rtibia 35.3827
rfoot -27.4999 -14.5422
rtoes 3.0909
lfemur -4.60338 6.99226 -17.0953
ltibia 24.3223
lfoot -21.5085 14.8341
ltoes -2.5471
149
root 44.7601 15.8576 -18.5183 171.021 -74.4053 -170.133
lowerback -3.2027 -0.053391 3.0118
upperback 2.88945 -0.282089 0.490942
thorax 4.77396 -0.0576253 -1.20209
lowerneck -9.02198 2.41008 4.69533
upperneck 10.221 2.86216 -2.53247
head 4.64734 1.42091 -1.35532
rclavicle -2.01642e-014 -7.95139e-016
rhumerus -33.3248 -11.5014 -83.1742
rradius 29.5724
rwrist 2.77586
rhand -17.0766 -6.57407
rfingers 7.12502
rthumb 9.16144 -36.3551
lclavicle -2.01642e-014 -7.95139e-016
lhumerus -29.8184 9.86094 84.2383
lradius 24.8219
lwrist 15.7979
lhand -16.6681 10.8444
lfingers 7.12502
lthumb 9.55557 40.6077
rfemur -10.8371 1.40345 25.0515
rtibia 35.3829
rfoot -27.4969 -14.5301
rtoes 3.07655
lfemur -4.58782 7.00929 -17.1068
ltibia 24.3139
lfoot -21.5007 14.8229
ltoes -2.56388
150
root 44.7599 15.8574 -18.5169 171.038 -74.4086 -170.16
lowerback -3.22522 -0.0456753 3.01894
upperback 2.89559 -0.273125 0.489532
thorax 4.79359 -0.0525799 -1.20698
lowerneck -9.07388 2.49755 4.76816
upperneck 10.3587 2.97802 -2.61836
head 4.70514 1.47509 -1.38482
rclavicle 7.42958e-015 4.91992e-015
rhumerus -33.3191 -11.5415 -83.154
rradius 29.5379
rwrist 2.79588
rhand -17.0814 -6.54876
rfingers 7.12502
rthumb 9.15679 -36.33
lclavicle 7.42958e-015 4.91992e-015
lhumerus -29.7817 9.82335 84.2573
lradius 24.8536
lwrist 15.8207
lhand -16.6717 10.852
lfingers 7.12502
lthumb 9.55213 40.6154
rfemur -10.8291 1.38858 25.0349
rtibia 35.386
rfoot -27.492 -14.5215
rtoes 3.05254
lfemur -4.57433 7.02756 -17.1176
ltibia 24.3034
lfoot -21.4915 14.809
ltoes -2.57327
151
root 44.76 15.8573 -18.5155 171.061 -74.4122 -170.189
lowerback -3.24893 -0.0376935 3.02354
upperback 2.90114 -0.263659 0.487719
thorax 4.8133 -0.0473576 -1.21083
lowerneck -9.12687 2.5814 4.83654
upperneck 10.4953 3.08907 -2.69901
head 4.76266 1.52694 -1.4122
rclavicle -4.82332e-014 2.5842e-015
rhumerus -33.3112 -11.5847 -83.1343
rradius 29.5026
rwrist 2.81835
rhand -17.083 -6.54046
rfingers 7.12502
rthumb 9.15526 -36.3217
lclavicle -4.82332e-014 2.5842e-015
lhumerus -29.7465 9.78876 84.274
lradius 24.8913
lwrist 15.844
lhand -16.6802 10.8586
lfingers 7.12502
lthumb 9.54395 40.6225
rfemur -10.8276 1.37782 25.019
rtibia 35.391
rfoot -27.4858 -14.5196
rtoes 3.02169
lfemur -4.56537 7.04375 -17.1293
ltibia 24.2918
lfoot -21.4791 14.7978
ltoes -2.58606
152
root 44.7602 15.8572 -18.5142 171.091 -74.4142 -170.224
lowerback -3.27167 -0.0290783 3.02491
upperback 2.90417 -0.252998 0.485378
thorax 4.82989 -0.0416886 -1.2133
lowerneck -9.16535 2.65925 4.90183
upperneck 10.6219 3.19258 -2.77509
head 4.81445 1.57525 -1.43829
rclavicle -3.98501e-015 -3.77691e-015
rhumerus -33.3092 -11.6205 -83.1176
rradius 29.474
rwrist 2.83378
rhand -17.0833 -6.54859
rfingers 7.12502
rthumb 9.15492 -36.3299
lclavicle -3.98501e-015 -3.77691e-015
lhumerus -29.7172 9.75778 84.287
lradius 24.9292
lwrist 15.8665
lhand -16.6908 10.8575
lfingers 7.12502
lthumb 9.53367 40.6219
rfemur -10.829 1.37295 25.003
rtibia 35.397
rfoot -27.4828 -14.5202
rtoes 3.00314
lfemur -4.55793 7.05601 -17.1428
ltibia 24.2799
lfoot -21.4675 14.7917
ltoes -2.59449
153
root 44.7605 15.8573 -18.513 171.114 -74.4145 -170.249
lowerback -3.29286 -0.0200834 3.02626
upperback 2.90488 -0.241749 0.484296
thorax 4.84319 -0.0358102 -1.21441
lowerneck -9.19308 2.73624 4.96299
upperneck 10.7333 3.29505 -2.84291
head 4.85971 1.62339 -1.46131
rclavicle -5.03174e-016 -1.3418e-014
rhumerus -33.3102 -11.651 -83.1023
rradius 29.449
rwrist 2.84688
rhand -17.0865 -6.56522
rfingers 7.12502
rthumb 9.1519 -36.3466
lclavicle -5.03174e-016 -1.3418e-014
lhumerus -29.6951 9.72987 84.2986
lradius 24.9715
lwrist 15.8867
lhand -16.7027 10.8546
lfingers 7.12502
lthumb 9.5222 40.6195
rfemur -10.8336 1.37207 24.991
rtibia 35.4025
rfoot -27.4815 -14.5233
rtoes 2.99735
lfemur -4.55362 7.06505 -17.1537
ltibia 24.2691
lfoot -21.459 14.7857
ltoes -2.58844
154
root 44.7611 15.8575 -18.5117 171.13 -74.4135 -170.266
lowerback -3.31004 -0.0112831 3.02804
upperback 2.90182 -0.230571 0.484645
thorax 4.85028 -0.0300871 -1.21426
lowerneck -9.20592 2.81135 5.02407
upperneck 10.8274 3.39545 -2.90892
head 4.89717 1.67068 -1.48405
rclavicle -3.41195e-014 1.93815e-015
rhumerus -33.3182 -11.672 -83.0872
rradius 29.4299
rwrist 2.85803
rhand -17.0843 -6.58061
rfingers 7.12502
rthumb 9.15401 -36.3619
lclavicle -3.41195e-014 1.93815e-015
lhumerus -29.6808 9.70302 84.3095
lradius 25.0135
lwrist 15.9078
lhand -16.7104 10.8484
lfingers 7.12502
lthumb 9.51478 40.6136
rfemur -10.84 1.37665 24.9829
rtibia 35.4068
rfoot -27.4868 -14.5245
rtoes 3.02238
lfemur -4.55302 7.06839 -17.1625
ltibia 24.2603
lfoot -21.4525 14.7856
ltoes -2.57962
155
root 44.7619 15.8578 -18.5105 171.134 -74.4119 -170.27
lowerback -3.32413 -0.00221083 3.03213
upperback 2.89549 -0.218992 0.48627
thorax 4.8522 -0.0242011 -1.21405
lowerneck -9.20929 2.88454 5.0868
upperneck 10.9079 3.49347 -2.97483
head 4.92893 1.71691 -1.5073
rclavicle -9.05713e-015 1.98785e-015
rhumerus -33.332 -11.6901 -83.0725
rradius 29.4153
rwrist 2.86657
rhand -17.084 -6.59734
rfingers 7.12502
rthumb 9.1543 -36.3787
lclavicle -9.05713e-015 1.98785e-015
lhumerus -29.6732 9.67017 84.3218
lradius 25.0564
lwrist 15.9339
lhand -16.716 10.8527
lfingers 7.12502
lthumb 9.50933 40.6182
rfemur -10.8479 1.38191 24.9795
rtibia 35.409
rfoot -27.4901 -14.5291
rtoes 3.04227
lfemur -4.55606 7.07026 -17.1674
ltibia 24.2547
lfoot -21.4495 14.7861
ltoes -2.57051
156
root 44.7628 15.8581 -18.5092 171.13 -74.4094 -170.263
lowerback -3.33384 0.0067205 3.03786
upperback 2.8873 -0.207558 0.489466
thorax 4.8497 -0.0184417 -1.21312
lowerneck -9.2104 2.95623 5.15133
upperneck 10.9799 3.58956 -3.04208
head 4.95777 1.7622 -1.5314
rclavicle 3.41661e-015 -2.38542e-015
rhumerus -33.3459 -11.706 -83.0575
rradius 29.4008
rwrist 2.87462
rhand -17.0857 -6.61009
rfingers 7.12502
rthumb 9.15263 -36.3915
lclavicle 3.41661e-015 -2.38542e-015
lhumerus -29.6697 9.63122 84.3379
lradius 25.0982
lwrist 15.967
lhand -16.7214 10.8609
lfingers 7.12502
lthumb 9.50416 40.6266
rfemur -10.855 1.39045 24.9793
rtibia 35.4091
rfoot -27.4956 -14.5322
rtoes 3.07326
lfemur -4.56108 7.06946 -17.1698
ltibia 24.2521
lfoot -21.4488 14.7891
ltoes -2.56095
157
root 44.7639 15.8584 -18.5079 171.119 -74.4091 -170.251
lowerback -3.33855 0.0146112 3.04381
upperback 2.87798 -0.19731 0.49267
thorax 4.8431 -0.0133323 -1.21238
lowerneck -9.21067 3.02409 5.21518
upperneck 11.0466 3.68042 -3.1074
head 4.98474 1.80501 -1.55517
rclavicle -5.23021e-014 -2.98177e-016
rhumerus -33.3581 -11.7279 -83.0408
rradius 29.3816
rwrist 2.89141
rhand -17.0854 -6.6126
rfingers 7.12502
rthumb 9.15289 -36.394
lclavicle -5.23021e-014 -2.98177e-016
lhumerus -29.6702 9.58621 84.3545
lradius 25.1434
lwrist 16.0026
lhand -16.7239 10.8799
lfingers 7.12502
lthumb 9.5017 40.6457
rfemur -10.8608 1.39829 24.9809
rtibia 35.4073
rfoot -27.4987 -14.539
rtoes 3.08935
lfemur -4.56796 7.0654 -17.1712
ltibia 24.2521
lfoot -21.4487 14.7925
ltoes -2.54951
158
root 44.7649 15.8586 -18.5067 171.103 -74.4101 -170.235
lowerback -3.34077 0.0213644 3.04874
upperback 2.86983 -0.188521 0.496535
thorax 4.83624 -0.00900283 -1.21048
lowerneck -9.21172 3.08471 5.27149
upperneck 11.1128 3.76174 -3.16578
head 5.01107 1.84324 -1.57622
rclavicle -2.26708e-014 3.18055e-015
rhumerus -33.3675 -11.748 -83.0265
rradius 29.3632
rwrist 2.9078
rhand -17.0868 -6.61491
rfingers 7.12502
rthumb 9.15162 -36.3963
lclavicle -2.26708e-014 3.18055e-015
lhumerus -29.6695 9.53878 84.3725
lradius 25.1865
lwrist 16.0394
lhand -16.7272 10.8951
lfingers 7.12502
lthumb 9.49852 40.661
rfemur -10.864 1.40614 24.9834
rtibia 35.4045
rfoot -27.501 -14.5448
rtoes 3.10759
lfemur -4.57425 7.06182 -17.1711
ltibia 24.253
lfoot -21.45 14.7926
ltoes -2.52991
159
root 44.7661 15.8588 -18.5054 171.095 -74.4131 -170.226
lowerback -3.33962 0.0279916 3.05193
upperback 2.85982 -0.179513 0.498672
thorax 4.82553 -0.00464732 -1.20938
lowerneck -9.21068 3.13716 5.31984
upperneck 11.181 3.83212 -3.21492
head 5.03701 1.87636 -1.59393
rclavicle 2.98643e-014 7.95139e-015
rhumerus -33.3781 -11.7704 -83.0129
rradius 29.3442
rwrist 2.92451
rhand -17.0863 -6.61725
rfingers 7.12502
rthumb 9.15205 -36.3987
lclavicle 2.98643e-014 7.95139e-015
lhumerus -29.6751 9.48928 84.3879
lradius 25.2331
lwrist 16.07
lhand -16.7258 10.9044
lfingers 7.12502
lthumb 9.49987 40.6703
rfemur -10.8675 1.4126 24.9832
rtibia 35.4017
rfoot -27.5003 -14.5519
rtoes 3.11818
lfemur -4.58113 7.05644 -17.1736
ltibia 24.2537
lfoot -21.4494 14.7935
ltoes -2.51393
